<mxfile host="app.diagrams.net" modified="2024-03-23T06:51:26.072Z" agent="Mozilla/5.0 (Macintosh; Intel Mac OS X 10_15_7) AppleWebKit/537.36 (KHTML, like Gecko) Chrome/122.0.0.0 Safari/537.36" etag="vwmFAB6b_e7HGRymu2aS" version="24.0.8" type="device">
  <diagram name="ページ1" id="_p8y2ZMvJbF9bzFV4q6h">
    <mxGraphModel dx="954" dy="581" grid="1" gridSize="10" guides="1" tooltips="1" connect="1" arrows="1" fold="1" page="1" pageScale="1" pageWidth="827" pageHeight="1169" math="0" shadow="0">
      <root>
        <mxCell id="0" />
        <mxCell id="1" parent="0" />
        <mxCell id="HbvzMS01daK5KtU9_YOO-4" value="" style="rounded=0;whiteSpace=wrap;html=1;fillColor=#fff2cc;strokeColor=none;" parent="1" vertex="1">
          <mxGeometry y="80" width="520" height="60" as="geometry" />
        </mxCell>
        <mxCell id="p1uvAuJWru4tgl7bkKN8-22" value="" style="rounded=0;whiteSpace=wrap;html=1;fillColor=#d5e8d4;strokeColor=none;" parent="1" vertex="1">
          <mxGeometry width="520" height="60" as="geometry" />
        </mxCell>
        <mxCell id="p1uvAuJWru4tgl7bkKN8-11" style="edgeStyle=orthogonalEdgeStyle;rounded=0;orthogonalLoop=1;jettySize=auto;html=1;" parent="1" target="p1uvAuJWru4tgl7bkKN8-8" edge="1">
          <mxGeometry relative="1" as="geometry">
            <mxPoint x="140" y="30" as="sourcePoint" />
            <Array as="points">
              <mxPoint x="150" y="30" />
              <mxPoint x="150" y="30" />
            </Array>
          </mxGeometry>
        </mxCell>
        <mxCell id="Q-xTxNDlCBi8yUghtBU0-17" style="edgeStyle=orthogonalEdgeStyle;rounded=0;orthogonalLoop=1;jettySize=auto;html=1;" parent="1" source="p1uvAuJWru4tgl7bkKN8-8" target="Q-xTxNDlCBi8yUghtBU0-15" edge="1">
          <mxGeometry relative="1" as="geometry" />
        </mxCell>
        <mxCell id="p1uvAuJWru4tgl7bkKN8-8" value="" style="ellipse;whiteSpace=wrap;html=1;aspect=fixed;" parent="1" vertex="1">
          <mxGeometry x="180" y="18.75" width="20" height="20" as="geometry" />
        </mxCell>
        <mxCell id="kbSniEzKT8dJjR5d77Om-12" style="edgeStyle=orthogonalEdgeStyle;rounded=0;orthogonalLoop=1;jettySize=auto;html=1;entryX=0;entryY=0.5;entryDx=0;entryDy=0;" parent="1" source="Q-xTxNDlCBi8yUghtBU0-15" target="kbSniEzKT8dJjR5d77Om-10" edge="1">
          <mxGeometry relative="1" as="geometry" />
        </mxCell>
        <mxCell id="Q-xTxNDlCBi8yUghtBU0-15" value="" style="ellipse;whiteSpace=wrap;html=1;aspect=fixed;" parent="1" vertex="1">
          <mxGeometry x="240" y="18.75" width="20" height="20" as="geometry" />
        </mxCell>
        <mxCell id="kbSniEzKT8dJjR5d77Om-13" style="edgeStyle=orthogonalEdgeStyle;rounded=0;orthogonalLoop=1;jettySize=auto;html=1;entryX=0;entryY=0.5;entryDx=0;entryDy=0;" parent="1" source="kbSniEzKT8dJjR5d77Om-10" target="kbSniEzKT8dJjR5d77Om-11" edge="1">
          <mxGeometry relative="1" as="geometry" />
        </mxCell>
        <mxCell id="kbSniEzKT8dJjR5d77Om-10" value="" style="ellipse;whiteSpace=wrap;html=1;aspect=fixed;" parent="1" vertex="1">
          <mxGeometry x="300" y="18.75" width="20" height="20" as="geometry" />
        </mxCell>
        <mxCell id="HbvzMS01daK5KtU9_YOO-80" style="edgeStyle=orthogonalEdgeStyle;rounded=0;orthogonalLoop=1;jettySize=auto;html=1;endArrow=none;endFill=0;" parent="1" source="kbSniEzKT8dJjR5d77Om-11" edge="1">
          <mxGeometry relative="1" as="geometry">
            <mxPoint x="370" y="110" as="targetPoint" />
          </mxGeometry>
        </mxCell>
        <mxCell id="kbSniEzKT8dJjR5d77Om-11" value="" style="ellipse;whiteSpace=wrap;html=1;aspect=fixed;fillColor=#f5f5f5;strokeColor=#666666;fontColor=#333333;" parent="1" vertex="1">
          <mxGeometry x="360" y="18.75" width="20" height="20" as="geometry" />
        </mxCell>
        <mxCell id="p1uvAuJWru4tgl7bkKN8-2" value="トランクブランチ" style="text;html=1;strokeColor=none;fillColor=none;align=center;verticalAlign=middle;whiteSpace=wrap;rounded=0;" parent="1" vertex="1">
          <mxGeometry x="14.5" y="18.75" width="111" height="22.5" as="geometry" />
        </mxCell>
        <mxCell id="p1uvAuJWru4tgl7bkKN8-4" value="リリースブランチ" style="text;html=1;strokeColor=none;fillColor=none;align=center;verticalAlign=middle;whiteSpace=wrap;rounded=0;" parent="1" vertex="1">
          <mxGeometry x="19.5" y="100" width="101" height="20" as="geometry" />
        </mxCell>
        <mxCell id="HbvzMS01daK5KtU9_YOO-6" value="" style="rounded=0;whiteSpace=wrap;html=1;fillColor=#fff2cc;strokeColor=none;" parent="1" vertex="1">
          <mxGeometry y="710" width="520" height="60" as="geometry" />
        </mxCell>
        <mxCell id="HbvzMS01daK5KtU9_YOO-7" value="" style="rounded=0;whiteSpace=wrap;html=1;fillColor=#d5e8d4;strokeColor=none;" parent="1" vertex="1">
          <mxGeometry y="630" width="520" height="60" as="geometry" />
        </mxCell>
        <mxCell id="HbvzMS01daK5KtU9_YOO-15" style="edgeStyle=orthogonalEdgeStyle;rounded=1;orthogonalLoop=1;jettySize=auto;html=1;curved=0;entryX=0;entryY=0.5;entryDx=0;entryDy=0;" parent="1" source="HbvzMS01daK5KtU9_YOO-16" target="HbvzMS01daK5KtU9_YOO-33" edge="1">
          <mxGeometry relative="1" as="geometry">
            <mxPoint x="210" y="740" as="targetPoint" />
            <Array as="points">
              <mxPoint x="190" y="740" />
            </Array>
          </mxGeometry>
        </mxCell>
        <mxCell id="HbvzMS01daK5KtU9_YOO-48" style="edgeStyle=orthogonalEdgeStyle;rounded=0;orthogonalLoop=1;jettySize=auto;html=1;entryX=0;entryY=0.5;entryDx=0;entryDy=0;" parent="1" source="HbvzMS01daK5KtU9_YOO-16" target="HbvzMS01daK5KtU9_YOO-47" edge="1">
          <mxGeometry relative="1" as="geometry" />
        </mxCell>
        <mxCell id="HbvzMS01daK5KtU9_YOO-16" value="" style="ellipse;whiteSpace=wrap;html=1;aspect=fixed;fillColor=#f5f5f5;fontColor=#333333;strokeColor=#666666;" parent="1" vertex="1">
          <mxGeometry x="180" y="649.75" width="20" height="20" as="geometry" />
        </mxCell>
        <mxCell id="HbvzMS01daK5KtU9_YOO-17" value="トランクブランチ" style="text;html=1;strokeColor=none;fillColor=none;align=center;verticalAlign=middle;whiteSpace=wrap;rounded=0;" parent="1" vertex="1">
          <mxGeometry x="14.5" y="648.75" width="111" height="22.5" as="geometry" />
        </mxCell>
        <mxCell id="HbvzMS01daK5KtU9_YOO-18" value="リリースブランチ" style="text;html=1;strokeColor=none;fillColor=none;align=center;verticalAlign=middle;whiteSpace=wrap;rounded=0;" parent="1" vertex="1">
          <mxGeometry x="19.5" y="730" width="101" height="20" as="geometry" />
        </mxCell>
        <mxCell id="HbvzMS01daK5KtU9_YOO-20" style="edgeStyle=orthogonalEdgeStyle;rounded=0;orthogonalLoop=1;jettySize=auto;html=1;" parent="1" edge="1">
          <mxGeometry relative="1" as="geometry">
            <mxPoint x="140" y="659.54" as="sourcePoint" />
            <mxPoint x="180" y="659.54" as="targetPoint" />
            <Array as="points">
              <mxPoint x="150" y="659.54" />
              <mxPoint x="150" y="659.54" />
            </Array>
          </mxGeometry>
        </mxCell>
        <mxCell id="HbvzMS01daK5KtU9_YOO-22" style="edgeStyle=orthogonalEdgeStyle;rounded=0;orthogonalLoop=1;jettySize=auto;html=1;entryX=0;entryY=0.5;entryDx=0;entryDy=0;" parent="1" source="HbvzMS01daK5KtU9_YOO-23" target="HbvzMS01daK5KtU9_YOO-25" edge="1">
          <mxGeometry relative="1" as="geometry" />
        </mxCell>
        <mxCell id="HbvzMS01daK5KtU9_YOO-36" style="rounded=0;orthogonalLoop=1;jettySize=auto;html=1;entryX=0.5;entryY=0;entryDx=0;entryDy=0;dashed=1;" parent="1" source="HbvzMS01daK5KtU9_YOO-23" target="HbvzMS01daK5KtU9_YOO-33" edge="1">
          <mxGeometry relative="1" as="geometry" />
        </mxCell>
        <mxCell id="HbvzMS01daK5KtU9_YOO-23" value="" style="ellipse;whiteSpace=wrap;html=1;aspect=fixed;fillColor=#dae8fc;strokeColor=#6c8ebf;" parent="1" vertex="1">
          <mxGeometry x="300" y="650" width="20" height="20" as="geometry" />
        </mxCell>
        <mxCell id="HbvzMS01daK5KtU9_YOO-24" style="edgeStyle=orthogonalEdgeStyle;rounded=0;orthogonalLoop=1;jettySize=auto;html=1;entryX=0;entryY=0.5;entryDx=0;entryDy=0;" parent="1" source="HbvzMS01daK5KtU9_YOO-25" target="HbvzMS01daK5KtU9_YOO-26" edge="1">
          <mxGeometry relative="1" as="geometry" />
        </mxCell>
        <mxCell id="HbvzMS01daK5KtU9_YOO-25" value="" style="ellipse;whiteSpace=wrap;html=1;aspect=fixed;" parent="1" vertex="1">
          <mxGeometry x="360" y="650" width="20" height="20" as="geometry" />
        </mxCell>
        <mxCell id="HbvzMS01daK5KtU9_YOO-37" style="rounded=0;orthogonalLoop=1;jettySize=auto;html=1;dashed=1;" parent="1" source="HbvzMS01daK5KtU9_YOO-26" target="HbvzMS01daK5KtU9_YOO-34" edge="1">
          <mxGeometry relative="1" as="geometry" />
        </mxCell>
        <mxCell id="HbvzMS01daK5KtU9_YOO-26" value="" style="ellipse;whiteSpace=wrap;html=1;aspect=fixed;fillColor=#dae8fc;strokeColor=#6c8ebf;" parent="1" vertex="1">
          <mxGeometry x="420" y="650" width="20" height="20" as="geometry" />
        </mxCell>
        <mxCell id="HbvzMS01daK5KtU9_YOO-29" value="" style="ellipse;whiteSpace=wrap;html=1;aspect=fixed;" parent="1" vertex="1">
          <mxGeometry x="480" y="649.75" width="20" height="20" as="geometry" />
        </mxCell>
        <mxCell id="HbvzMS01daK5KtU9_YOO-31" style="edgeStyle=orthogonalEdgeStyle;rounded=0;orthogonalLoop=1;jettySize=auto;html=1;entryX=0;entryY=0.5;entryDx=0;entryDy=0;" parent="1" source="HbvzMS01daK5KtU9_YOO-26" target="HbvzMS01daK5KtU9_YOO-29" edge="1">
          <mxGeometry relative="1" as="geometry" />
        </mxCell>
        <mxCell id="HbvzMS01daK5KtU9_YOO-38" style="edgeStyle=orthogonalEdgeStyle;rounded=0;orthogonalLoop=1;jettySize=auto;html=1;" parent="1" source="HbvzMS01daK5KtU9_YOO-33" target="HbvzMS01daK5KtU9_YOO-34" edge="1">
          <mxGeometry relative="1" as="geometry" />
        </mxCell>
        <mxCell id="HbvzMS01daK5KtU9_YOO-33" value="" style="ellipse;whiteSpace=wrap;html=1;aspect=fixed;fillColor=#dae8fc;strokeColor=#6c8ebf;" parent="1" vertex="1">
          <mxGeometry x="270" y="730" width="20" height="20" as="geometry" />
        </mxCell>
        <mxCell id="HbvzMS01daK5KtU9_YOO-34" value="" style="ellipse;whiteSpace=wrap;html=1;aspect=fixed;fillColor=#dae8fc;strokeColor=#6c8ebf;" parent="1" vertex="1">
          <mxGeometry x="390" y="730" width="20" height="20" as="geometry" />
        </mxCell>
        <mxCell id="HbvzMS01daK5KtU9_YOO-39" value="" style="ellipse;whiteSpace=wrap;html=1;aspect=fixed;fillColor=#dae8fc;strokeColor=#6c8ebf;" parent="1" vertex="1">
          <mxGeometry x="240" y="580" width="20" height="20" as="geometry" />
        </mxCell>
        <mxCell id="HbvzMS01daK5KtU9_YOO-40" value="リリースに含めたい修正" style="text;html=1;align=center;verticalAlign=middle;whiteSpace=wrap;rounded=0;" parent="1" vertex="1">
          <mxGeometry x="270" y="575" width="150" height="30" as="geometry" />
        </mxCell>
        <mxCell id="HbvzMS01daK5KtU9_YOO-46" value="チェリーピック" style="text;html=1;align=center;verticalAlign=middle;whiteSpace=wrap;rounded=0;" parent="1" vertex="1">
          <mxGeometry x="290" y="685" width="100" height="30" as="geometry" />
        </mxCell>
        <mxCell id="HbvzMS01daK5KtU9_YOO-49" style="edgeStyle=orthogonalEdgeStyle;rounded=0;orthogonalLoop=1;jettySize=auto;html=1;entryX=0;entryY=0.5;entryDx=0;entryDy=0;" parent="1" source="HbvzMS01daK5KtU9_YOO-47" target="HbvzMS01daK5KtU9_YOO-23" edge="1">
          <mxGeometry relative="1" as="geometry" />
        </mxCell>
        <mxCell id="HbvzMS01daK5KtU9_YOO-47" value="" style="ellipse;whiteSpace=wrap;html=1;aspect=fixed;" parent="1" vertex="1">
          <mxGeometry x="240" y="650" width="20" height="20" as="geometry" />
        </mxCell>
        <mxCell id="HbvzMS01daK5KtU9_YOO-50" value="" style="rounded=0;whiteSpace=wrap;html=1;fillColor=#fff2cc;strokeColor=none;" parent="1" vertex="1">
          <mxGeometry y="380" width="520" height="60" as="geometry" />
        </mxCell>
        <mxCell id="HbvzMS01daK5KtU9_YOO-51" value="" style="rounded=0;whiteSpace=wrap;html=1;fillColor=#d5e8d4;strokeColor=none;" parent="1" vertex="1">
          <mxGeometry y="300" width="520" height="60" as="geometry" />
        </mxCell>
        <mxCell id="HbvzMS01daK5KtU9_YOO-52" style="edgeStyle=orthogonalEdgeStyle;rounded=0;orthogonalLoop=1;jettySize=auto;html=1;" parent="1" target="HbvzMS01daK5KtU9_YOO-54" edge="1">
          <mxGeometry relative="1" as="geometry">
            <mxPoint x="140" y="330" as="sourcePoint" />
            <Array as="points">
              <mxPoint x="150" y="330" />
              <mxPoint x="150" y="330" />
            </Array>
          </mxGeometry>
        </mxCell>
        <mxCell id="HbvzMS01daK5KtU9_YOO-53" style="edgeStyle=orthogonalEdgeStyle;rounded=0;orthogonalLoop=1;jettySize=auto;html=1;" parent="1" source="HbvzMS01daK5KtU9_YOO-54" target="HbvzMS01daK5KtU9_YOO-56" edge="1">
          <mxGeometry relative="1" as="geometry" />
        </mxCell>
        <mxCell id="HbvzMS01daK5KtU9_YOO-54" value="" style="ellipse;whiteSpace=wrap;html=1;aspect=fixed;" parent="1" vertex="1">
          <mxGeometry x="180" y="318.75" width="20" height="20" as="geometry" />
        </mxCell>
        <mxCell id="HbvzMS01daK5KtU9_YOO-55" style="edgeStyle=orthogonalEdgeStyle;rounded=0;orthogonalLoop=1;jettySize=auto;html=1;entryX=0;entryY=0.5;entryDx=0;entryDy=0;" parent="1" source="HbvzMS01daK5KtU9_YOO-56" target="HbvzMS01daK5KtU9_YOO-58" edge="1">
          <mxGeometry relative="1" as="geometry" />
        </mxCell>
        <mxCell id="HbvzMS01daK5KtU9_YOO-56" value="" style="ellipse;whiteSpace=wrap;html=1;aspect=fixed;fillColor=#f5f5f5;fontColor=#333333;strokeColor=#666666;" parent="1" vertex="1">
          <mxGeometry x="240" y="318.75" width="20" height="20" as="geometry" />
        </mxCell>
        <mxCell id="HbvzMS01daK5KtU9_YOO-57" style="edgeStyle=orthogonalEdgeStyle;rounded=0;orthogonalLoop=1;jettySize=auto;html=1;entryX=0;entryY=0.5;entryDx=0;entryDy=0;" parent="1" source="HbvzMS01daK5KtU9_YOO-58" target="HbvzMS01daK5KtU9_YOO-60" edge="1">
          <mxGeometry relative="1" as="geometry" />
        </mxCell>
        <mxCell id="HbvzMS01daK5KtU9_YOO-58" value="" style="ellipse;whiteSpace=wrap;html=1;aspect=fixed;fillColor=#f8cecc;strokeColor=#b85450;" parent="1" vertex="1">
          <mxGeometry x="300" y="318.75" width="20" height="20" as="geometry" />
        </mxCell>
        <mxCell id="HbvzMS01daK5KtU9_YOO-59" style="edgeStyle=orthogonalEdgeStyle;rounded=1;orthogonalLoop=1;jettySize=auto;html=1;curved=0;exitX=0.5;exitY=1;exitDx=0;exitDy=0;entryX=0;entryY=0.5;entryDx=0;entryDy=0;" parent="1" source="HbvzMS01daK5KtU9_YOO-56" target="HbvzMS01daK5KtU9_YOO-63" edge="1">
          <mxGeometry relative="1" as="geometry">
            <mxPoint x="310" y="410" as="targetPoint" />
            <Array as="points">
              <mxPoint x="250" y="410" />
            </Array>
          </mxGeometry>
        </mxCell>
        <mxCell id="HbvzMS01daK5KtU9_YOO-64" style="rounded=0;orthogonalLoop=1;jettySize=auto;html=1;dashed=1;" parent="1" source="HbvzMS01daK5KtU9_YOO-60" target="HbvzMS01daK5KtU9_YOO-63" edge="1">
          <mxGeometry relative="1" as="geometry" />
        </mxCell>
        <mxCell id="HbvzMS01daK5KtU9_YOO-60" value="" style="ellipse;whiteSpace=wrap;html=1;aspect=fixed;" parent="1" vertex="1">
          <mxGeometry x="360" y="318.75" width="20" height="20" as="geometry" />
        </mxCell>
        <mxCell id="HbvzMS01daK5KtU9_YOO-61" value="トランクブランチ" style="text;html=1;strokeColor=none;fillColor=none;align=center;verticalAlign=middle;whiteSpace=wrap;rounded=0;" parent="1" vertex="1">
          <mxGeometry x="14.5" y="318.75" width="111" height="22.5" as="geometry" />
        </mxCell>
        <mxCell id="HbvzMS01daK5KtU9_YOO-62" value="リリースブランチ" style="text;html=1;strokeColor=none;fillColor=none;align=center;verticalAlign=middle;whiteSpace=wrap;rounded=0;" parent="1" vertex="1">
          <mxGeometry x="19.5" y="400" width="101" height="20" as="geometry" />
        </mxCell>
        <mxCell id="HbvzMS01daK5KtU9_YOO-63" value="" style="ellipse;whiteSpace=wrap;html=1;aspect=fixed;" parent="1" vertex="1">
          <mxGeometry x="330" y="400" width="20" height="20" as="geometry" />
        </mxCell>
        <mxCell id="HbvzMS01daK5KtU9_YOO-65" value="チェリーピック" style="text;html=1;align=center;verticalAlign=middle;whiteSpace=wrap;rounded=0;" parent="1" vertex="1">
          <mxGeometry x="360" y="355" width="100" height="30" as="geometry" />
        </mxCell>
        <mxCell id="HbvzMS01daK5KtU9_YOO-66" value="" style="ellipse;whiteSpace=wrap;html=1;aspect=fixed;fillColor=#f8cecc;strokeColor=#b85450;" parent="1" vertex="1">
          <mxGeometry x="300" y="250" width="20" height="20" as="geometry" />
        </mxCell>
        <mxCell id="HbvzMS01daK5KtU9_YOO-67" value="リリースに含めたくない修正" style="text;html=1;align=center;verticalAlign=middle;whiteSpace=wrap;rounded=0;fontFamily=Helvetica;fontSize=12;fontColor=default;" parent="1" vertex="1">
          <mxGeometry x="320" y="245" width="170" height="30" as="geometry" />
        </mxCell>
        <mxCell id="HbvzMS01daK5KtU9_YOO-68" value="" style="shape=flexArrow;endArrow=classic;html=1;rounded=0;fillColor=#f5f5f5;strokeColor=#666666;" parent="1" edge="1">
          <mxGeometry width="50" height="50" relative="1" as="geometry">
            <mxPoint x="370" y="160" as="sourcePoint" />
            <mxPoint x="370" y="120" as="targetPoint" />
          </mxGeometry>
        </mxCell>
        <mxCell id="HbvzMS01daK5KtU9_YOO-69" value="1回目のビルド" style="text;html=1;align=center;verticalAlign=middle;whiteSpace=wrap;rounded=0;fontFamily=Helvetica;fontSize=12;fontColor=default;" parent="1" vertex="1">
          <mxGeometry x="320" y="160" width="100" height="30" as="geometry" />
        </mxCell>
        <mxCell id="HbvzMS01daK5KtU9_YOO-82" value="" style="shape=flexArrow;endArrow=classic;html=1;rounded=0;fillColor=#f5f5f5;strokeColor=#666666;" parent="1" edge="1">
          <mxGeometry width="50" height="50" relative="1" as="geometry">
            <mxPoint x="340" y="460" as="sourcePoint" />
            <mxPoint x="340" y="420" as="targetPoint" />
          </mxGeometry>
        </mxCell>
        <mxCell id="HbvzMS01daK5KtU9_YOO-83" value="1回目のビルド" style="text;html=1;align=center;verticalAlign=middle;whiteSpace=wrap;rounded=0;fontFamily=Helvetica;fontSize=12;fontColor=default;" parent="1" vertex="1">
          <mxGeometry x="290" y="460" width="100" height="30" as="geometry" />
        </mxCell>
        <mxCell id="HbvzMS01daK5KtU9_YOO-84" value="" style="shape=flexArrow;endArrow=classic;html=1;rounded=0;fillColor=#f5f5f5;strokeColor=#666666;" parent="1" edge="1">
          <mxGeometry width="50" height="50" relative="1" as="geometry">
            <mxPoint x="190" y="790" as="sourcePoint" />
            <mxPoint x="190" y="750" as="targetPoint" />
          </mxGeometry>
        </mxCell>
        <mxCell id="HbvzMS01daK5KtU9_YOO-85" value="1回目のビルド" style="text;html=1;align=center;verticalAlign=middle;whiteSpace=wrap;rounded=0;fontFamily=Helvetica;fontSize=12;fontColor=default;" parent="1" vertex="1">
          <mxGeometry x="140" y="790" width="100" height="30" as="geometry" />
        </mxCell>
        <mxCell id="HbvzMS01daK5KtU9_YOO-86" value="" style="shape=flexArrow;endArrow=classic;html=1;rounded=0;fillColor=#f5f5f5;strokeColor=#666666;" parent="1" edge="1">
          <mxGeometry width="50" height="50" relative="1" as="geometry">
            <mxPoint x="400" y="790" as="sourcePoint" />
            <mxPoint x="400" y="750" as="targetPoint" />
          </mxGeometry>
        </mxCell>
        <mxCell id="HbvzMS01daK5KtU9_YOO-87" value="2回目のビルド" style="text;html=1;align=center;verticalAlign=middle;whiteSpace=wrap;rounded=0;fontFamily=Helvetica;fontSize=12;fontColor=default;" parent="1" vertex="1">
          <mxGeometry x="350" y="790" width="100" height="30" as="geometry" />
        </mxCell>
        <mxCell id="HbvzMS01daK5KtU9_YOO-89" value="ブランチ分岐" style="text;html=1;align=center;verticalAlign=middle;whiteSpace=wrap;rounded=0;fontFamily=Helvetica;fontSize=12;fontColor=default;" parent="1" vertex="1">
          <mxGeometry x="370" y="55" width="90" height="30" as="geometry" />
        </mxCell>
        <mxCell id="HbvzMS01daK5KtU9_YOO-90" value="" style="rounded=0;whiteSpace=wrap;html=1;fillColor=#fff2cc;strokeColor=none;" parent="1" vertex="1">
          <mxGeometry y="1020" width="520" height="60" as="geometry" />
        </mxCell>
        <mxCell id="HbvzMS01daK5KtU9_YOO-91" value="" style="rounded=0;whiteSpace=wrap;html=1;fillColor=#d5e8d4;strokeColor=none;" parent="1" vertex="1">
          <mxGeometry y="940" width="520" height="60" as="geometry" />
        </mxCell>
        <mxCell id="HbvzMS01daK5KtU9_YOO-93" style="edgeStyle=orthogonalEdgeStyle;rounded=0;orthogonalLoop=1;jettySize=auto;html=1;entryX=0;entryY=0.5;entryDx=0;entryDy=0;" parent="1" source="HbvzMS01daK5KtU9_YOO-94" edge="1">
          <mxGeometry relative="1" as="geometry">
            <mxPoint x="240" y="970" as="targetPoint" />
          </mxGeometry>
        </mxCell>
        <mxCell id="HbvzMS01daK5KtU9_YOO-94" value="" style="ellipse;whiteSpace=wrap;html=1;aspect=fixed;fillColor=#f5f5f5;fontColor=#333333;strokeColor=#666666;" parent="1" vertex="1">
          <mxGeometry x="180" y="959.75" width="20" height="20" as="geometry" />
        </mxCell>
        <mxCell id="HbvzMS01daK5KtU9_YOO-95" value="トランクブランチ" style="text;html=1;strokeColor=none;fillColor=none;align=center;verticalAlign=middle;whiteSpace=wrap;rounded=0;" parent="1" vertex="1">
          <mxGeometry x="14.5" y="958.75" width="111" height="22.5" as="geometry" />
        </mxCell>
        <mxCell id="HbvzMS01daK5KtU9_YOO-96" value="リリースブランチ" style="text;html=1;strokeColor=none;fillColor=none;align=center;verticalAlign=middle;whiteSpace=wrap;rounded=0;" parent="1" vertex="1">
          <mxGeometry x="19.5" y="1040" width="101" height="20" as="geometry" />
        </mxCell>
        <mxCell id="HbvzMS01daK5KtU9_YOO-97" style="edgeStyle=orthogonalEdgeStyle;rounded=0;orthogonalLoop=1;jettySize=auto;html=1;" parent="1" edge="1">
          <mxGeometry relative="1" as="geometry">
            <mxPoint x="140" y="969.54" as="sourcePoint" />
            <mxPoint x="180" y="969.54" as="targetPoint" />
            <Array as="points">
              <mxPoint x="150" y="969.54" />
              <mxPoint x="150" y="969.54" />
            </Array>
          </mxGeometry>
        </mxCell>
        <mxCell id="HbvzMS01daK5KtU9_YOO-101" style="edgeStyle=orthogonalEdgeStyle;rounded=0;orthogonalLoop=1;jettySize=auto;html=1;entryX=0;entryY=0.5;entryDx=0;entryDy=0;" parent="1" source="HbvzMS01daK5KtU9_YOO-102" target="HbvzMS01daK5KtU9_YOO-104" edge="1">
          <mxGeometry relative="1" as="geometry" />
        </mxCell>
        <mxCell id="HbvzMS01daK5KtU9_YOO-102" value="" style="ellipse;whiteSpace=wrap;html=1;aspect=fixed;" parent="1" vertex="1">
          <mxGeometry x="360" y="960" width="20" height="20" as="geometry" />
        </mxCell>
        <mxCell id="HbvzMS01daK5KtU9_YOO-103" style="rounded=0;orthogonalLoop=1;jettySize=auto;html=1;dashed=1;" parent="1" source="HbvzMS01daK5KtU9_YOO-104" target="HbvzMS01daK5KtU9_YOO-109" edge="1">
          <mxGeometry relative="1" as="geometry" />
        </mxCell>
        <mxCell id="HbvzMS01daK5KtU9_YOO-104" value="" style="ellipse;whiteSpace=wrap;html=1;aspect=fixed;fillColor=#dae8fc;strokeColor=#6c8ebf;" parent="1" vertex="1">
          <mxGeometry x="420" y="960" width="20" height="20" as="geometry" />
        </mxCell>
        <mxCell id="HbvzMS01daK5KtU9_YOO-105" value="" style="ellipse;whiteSpace=wrap;html=1;aspect=fixed;" parent="1" vertex="1">
          <mxGeometry x="480" y="959.75" width="20" height="20" as="geometry" />
        </mxCell>
        <mxCell id="HbvzMS01daK5KtU9_YOO-106" style="edgeStyle=orthogonalEdgeStyle;rounded=0;orthogonalLoop=1;jettySize=auto;html=1;entryX=0;entryY=0.5;entryDx=0;entryDy=0;" parent="1" source="HbvzMS01daK5KtU9_YOO-104" target="HbvzMS01daK5KtU9_YOO-105" edge="1">
          <mxGeometry relative="1" as="geometry" />
        </mxCell>
        <mxCell id="HbvzMS01daK5KtU9_YOO-107" style="edgeStyle=orthogonalEdgeStyle;rounded=0;orthogonalLoop=1;jettySize=auto;html=1;" parent="1" source="HbvzMS01daK5KtU9_YOO-108" target="HbvzMS01daK5KtU9_YOO-109" edge="1">
          <mxGeometry relative="1" as="geometry" />
        </mxCell>
        <mxCell id="HbvzMS01daK5KtU9_YOO-108" value="" style="ellipse;whiteSpace=wrap;html=1;aspect=fixed;" parent="1" vertex="1">
          <mxGeometry x="300" y="1040" width="20" height="20" as="geometry" />
        </mxCell>
        <mxCell id="HbvzMS01daK5KtU9_YOO-109" value="" style="ellipse;whiteSpace=wrap;html=1;aspect=fixed;fillColor=#dae8fc;strokeColor=#6c8ebf;" parent="1" vertex="1">
          <mxGeometry x="390" y="1040" width="20" height="20" as="geometry" />
        </mxCell>
        <mxCell id="HbvzMS01daK5KtU9_YOO-110" value="" style="ellipse;whiteSpace=wrap;html=1;aspect=fixed;fillColor=#dae8fc;strokeColor=#6c8ebf;" parent="1" vertex="1">
          <mxGeometry x="340" y="890" width="20" height="20" as="geometry" />
        </mxCell>
        <mxCell id="HbvzMS01daK5KtU9_YOO-111" value="hotfixとして含めたい修正" style="text;html=1;align=center;verticalAlign=middle;whiteSpace=wrap;rounded=0;" parent="1" vertex="1">
          <mxGeometry x="360" y="885" width="160" height="30" as="geometry" />
        </mxCell>
        <mxCell id="HbvzMS01daK5KtU9_YOO-115" value="" style="shape=flexArrow;endArrow=classic;html=1;rounded=0;fillColor=#f5f5f5;strokeColor=#666666;" parent="1" edge="1">
          <mxGeometry width="50" height="50" relative="1" as="geometry">
            <mxPoint x="310" y="1100" as="sourcePoint" />
            <mxPoint x="310" y="1060" as="targetPoint" />
          </mxGeometry>
        </mxCell>
        <mxCell id="HbvzMS01daK5KtU9_YOO-116" value="v1.0のビルド" style="text;html=1;align=center;verticalAlign=middle;whiteSpace=wrap;rounded=0;fontFamily=Helvetica;fontSize=12;fontColor=default;" parent="1" vertex="1">
          <mxGeometry x="265" y="1100" width="90" height="30" as="geometry" />
        </mxCell>
        <mxCell id="HbvzMS01daK5KtU9_YOO-117" value="" style="shape=flexArrow;endArrow=classic;html=1;rounded=0;fillColor=#f5f5f5;strokeColor=#666666;" parent="1" edge="1">
          <mxGeometry width="50" height="50" relative="1" as="geometry">
            <mxPoint x="400" y="1100" as="sourcePoint" />
            <mxPoint x="400" y="1060" as="targetPoint" />
          </mxGeometry>
        </mxCell>
        <mxCell id="HbvzMS01daK5KtU9_YOO-118" value="hotfixのビルド" style="text;html=1;align=center;verticalAlign=middle;whiteSpace=wrap;rounded=0;fontFamily=Helvetica;fontSize=12;fontColor=default;" parent="1" vertex="1">
          <mxGeometry x="351" y="1100" width="100" height="30" as="geometry" />
        </mxCell>
        <mxCell id="HbvzMS01daK5KtU9_YOO-120" value="" style="endArrow=none;html=1;rounded=0;dashed=1;endFill=0;" parent="1" edge="1">
          <mxGeometry width="50" height="50" relative="1" as="geometry">
            <mxPoint x="250" y="970" as="sourcePoint" />
            <mxPoint x="310" y="970" as="targetPoint" />
          </mxGeometry>
        </mxCell>
        <mxCell id="HbvzMS01daK5KtU9_YOO-121" value="" style="endArrow=classic;html=1;rounded=0;entryX=0;entryY=0.5;entryDx=0;entryDy=0;" parent="1" target="HbvzMS01daK5KtU9_YOO-102" edge="1">
          <mxGeometry width="50" height="50" relative="1" as="geometry">
            <mxPoint x="320" y="969.65" as="sourcePoint" />
            <mxPoint x="360" y="969.65" as="targetPoint" />
          </mxGeometry>
        </mxCell>
        <mxCell id="HbvzMS01daK5KtU9_YOO-123" value="" style="endArrow=none;html=1;rounded=0;dashed=1;endFill=0;" parent="1" edge="1">
          <mxGeometry width="50" height="50" relative="1" as="geometry">
            <mxPoint x="230" y="1049.81" as="sourcePoint" />
            <mxPoint x="250" y="1050" as="targetPoint" />
          </mxGeometry>
        </mxCell>
        <mxCell id="HbvzMS01daK5KtU9_YOO-92" style="edgeStyle=orthogonalEdgeStyle;rounded=1;orthogonalLoop=1;jettySize=auto;html=1;curved=0;" parent="1" source="HbvzMS01daK5KtU9_YOO-94" edge="1">
          <mxGeometry relative="1" as="geometry">
            <mxPoint x="220" y="1050" as="targetPoint" />
            <Array as="points">
              <mxPoint x="190" y="1050" />
              <mxPoint x="210" y="1050" />
            </Array>
          </mxGeometry>
        </mxCell>
        <mxCell id="HbvzMS01daK5KtU9_YOO-124" value="" style="endArrow=classic;html=1;rounded=0;entryX=0;entryY=0.5;entryDx=0;entryDy=0;" parent="1" target="HbvzMS01daK5KtU9_YOO-108" edge="1">
          <mxGeometry width="50" height="50" relative="1" as="geometry">
            <mxPoint x="260" y="1049.6399999999999" as="sourcePoint" />
            <mxPoint x="300" y="1050" as="targetPoint" />
          </mxGeometry>
        </mxCell>
      </root>
    </mxGraphModel>
  </diagram>
</mxfile>
